<?xml version="1.0" encoding="UTF-8"?>
<svg enable-background="new 0 0 600 600" version="1.1" viewBox="0 0 600 600" xmlns="http://www.w3.org/2000/svg">
 <polygon points="27.333 306.25 65.667 272.62 94.833 171.31 180.92 183.16 199.96 166.08 198.98 100.04 195.99 92.02 204 88.01 262 102 259 108 259 118 337.25 136 403.62 118 425.81 167 482.91 205 560 312 560 316 550.25 315.5 536.62 418 528.31 419.5 524.41 418.25 537.5 318 531 318 535.5 325.25 534 329.88 528 329.19 515.5 430.09 447 443.55 444.5 452.02 280 478.51 119.5 439.51 108.67 340.67 87.333 339.34 98 428.67 90 432 78.667 430.33 63.333 310 27 310" fill="none" stroke="#070707" stroke-miterlimit="10" stroke-width="2"/>
 <line x1="528" x2="460" y1="329" y2="329.33" fill="none" stroke="#070707" stroke-miterlimit="10" stroke-width="1.5"/>
 <polyline points="561.5 312 528 311.33 531 316.5" fill="none" stroke="#070707" stroke-miterlimit="10"/>
 <line x1="535.5" x2="460" y1="324.5" y2="323.33" fill="none" stroke="#070707" stroke-miterlimit="10"/>
 <polyline points="63.333 308.5 265 306 404 133 488 320 492 312 426 167" fill="none" stroke="#070707" stroke-miterlimit="10" stroke-width="2"/>
 <polygon points="275.83 123.17 261 160 336 137.5" fill="#A3A3A3" opacity=".6"/>
 <polyline points="31 304 262 297 404 118" fill="none" stroke="#070707" stroke-miterlimit="10"/>
 <polyline points="260.5 118 262 133 210 200 202 201 199.96 166.03" fill="none" stroke="#070707" stroke-miterlimit="10"/>
 <polyline points="210 200 206 96 204 88.004" fill="none" stroke="#070707" stroke-miterlimit="10"/>
 <polyline points="198.98 100.02 206 96 260.5 108" fill="none" stroke="#070707" stroke-miterlimit="10"/>
 <polyline points="94.833 171.38 170 284.12 162 286.06 99 189.53 65 292 58 292 65.667 272.5" fill="none" stroke="#070707" stroke-miterlimit="10" stroke-width="2"/>
 <polyline points="67 288 85 277 153 274" fill="none" stroke="#070707" stroke-miterlimit="10"/>
 <line x1="180.92" x2="170" y1="183.06" y2="284.12" fill="none" stroke="#070707" stroke-miterlimit="10"/>
 <line x1="273" x2="280" y1="295" y2="478.5" fill="none" stroke="#070707" stroke-miterlimit="10"/>
 <polyline points="77 417 88 420 96 418" fill="none" stroke="#070707" stroke-miterlimit="10"/>
 <polyline points="116 425 277 455 447 434" fill="none" stroke="#070707" stroke-miterlimit="10"/>
 <line x1="449" x2="516" y1="428" y2="417" fill="none" stroke="#070707" stroke-miterlimit="10"/>
 <polyline points="526 409 529.33 410.33 538.33 409.67" fill="none" stroke="#070707" stroke-miterlimit="10"/>
 <polygon points="459 343 525.17 339.33 526.33 329.67 460 330" fill="#A3A3A3" opacity=".6"/>
 <line x1="537.5" x2="551" y1="316.5" y2="315.5" fill="none" stroke="#070707" stroke-miterlimit="10"/>
 <polyline points="536.67 321.67 542 321 549.67 321.67" fill="none" stroke="#070707" stroke-miterlimit="10"/>
 <line x1="542" x2="528.5" y1="316.67" y2="419.5" fill="none" stroke="#070707" stroke-miterlimit="10"/>
 <polyline points="87 340 80 340 90 432.5" fill="none" stroke="#070707" stroke-miterlimit="10" stroke-width="2"/>
 <g fill="none" stroke="#070707" stroke-miterlimit="10">
  <polygon points="139.75 346.25 145.33 401.33 170 402.75 168.25 344.75" stroke-width="1.5"/>
  <polygon points="143.5 348.75 148 399.25 155.5 399.5 151.5 349"/>
  <polygon points="154.25 349 158.75 400.25 166.75 400 165.25 348.5"/>
  <polyline points="168.75 346 170 346.25 171.25 403 170 402.75" stroke-width="1.5"/>
 </g>
 <g fill="none" stroke="#070707" stroke-miterlimit="10">
  <polygon points="194.5 345.38 200.35 405.43 226.19 406.98 224.36 343.75" stroke-width="1.5"/>
  <polygon points="198.43 348.11 203.14 403.16 211 403.44 206.81 348.38"/>
  <polygon points="209.69 348.38 214.4 404.25 222.79 403.98 221.21 347.84"/>
  <polyline points="224.88 345.11 226.19 345.38 227.5 407.25 226.19 406.98" stroke-width="1.5"/>
 </g>
 <g fill="none" stroke="#070707" stroke-miterlimit="10">
  <polygon points="329.33 337.33 333 425 413.33 417.33 421.33 337" stroke-width="1.5"/>
  <polygon points="336.33 342.5 338 420.79 410 412.23 416.67 342.12 395.33 341.97 392.33 412.5 388 412.5 390.67 342.5 364 342.5 365 415.5 360 415.5 359 342.5"/>
  <polyline points="409.67 343 404.67 409 410 412.23"/>
  <line x1="404.67" x2="392.67" y1="409" y2="410"/>
  <line x1="387.33" x2="364.67" y1="410.33" y2="412.67"/>
  <line x1="359.33" x2="338.67" y1="413" y2="414.33"/>
  <polyline points="329.33 338.08 326.33 338.79 329.83 425.33 333 425" stroke-width="1.5"/>
 </g>
 <polyline points="488 320 461 317 447 443.5" fill="none" stroke="#070707" stroke-miterlimit="10"/>
 <line x1="461" x2="389" y1="317" y2="152" fill="none" stroke="#070707" stroke-miterlimit="10"/>
 <polygon points="67 322.5 274 324 394.67 166.33 399 142 266 306 65 310" fill="#A3A3A3" opacity=".6"/>
 <g fill="none" stroke="#070707" stroke-miterlimit="10">
  <path d="m398.37 222.56c3.93 5.126 4.963 10.437 4.963 10.437l-0.667 71.333-45.333 0.333-1-75.333s11.667-22 33.667-13.667c3.682 1.786 6.393 4.318 8.37 6.897" stroke-width="1.5"/>
  <path d="m395.36 226.78c3.15 4.42 3.978 9 3.978 9l-0.534 61.511-36.331 0.287-0.801-64.961s9.35-18.971 26.981-11.785c2.949 1.541 5.122 3.725 6.707 5.948"/>
  <polyline points="361.88 241 395.5 245 395.38 247.88 362 245"/>
  <polyline points="361.88 260.75 396.69 262.71 396.62 265.88 362.05 264.56"/>
  <polyline points="362.38 279.12 397.12 280.25 397 283.88 362.38 282.5"/>
  <path d="m365.5 227.75s17-11.75 27.25 5.75l-0.25 10.75"/>
  <line x1="392" x2="392.25" y1="247.75" y2="262"/>
  <line x1="392.5" x2="392.5" y1="266" y2="280"/>
  <line x1="392.25" x2="392.5" y1="284" y2="297.25"/>
 </g>
 <g fill="none" stroke="#070707" stroke-miterlimit="10">
  <polygon points="249.33 217.33 225 253.67 251.67 254 275 215.33"/>
  <polygon points="229 251.5 250.33 220.08 268.33 219.46 249.33 251.5"/>
  <polyline points="225 253.67 226 255.33 252.33 256.67 251.67 254" stroke-width="1.5"/>
  <polyline points="252.33 256.67 275.67 219.33 275 215.33" stroke-width="1.5"/>
 </g>
 <polyline points="111 275 107.5 229 123 227" fill="none" stroke="#070707" stroke-miterlimit="10"/>
 <line x1="127.5" x2="129.5" y1="233.5" y2="275" fill="none" stroke="#070707" stroke-miterlimit="10"/>
 <polygon points="113.5 272.5 109.5 231.25 123.5 229.38 126 272.5" fill="none" stroke="#070707" stroke-miterlimit="10"/>
</svg>
